<svg width="23" height="22" fill="none" xmlns="http://www.w3.org/2000/svg"><path fill-rule="evenodd" clip-rule="evenodd" d="M7.837 0h8.25a6.876 6.876 0 016.875 6.875v8.25A6.876 6.876 0 0116.087 22h-8.25a6.876 6.876 0 01-6.875-6.875v-8.25A6.876 6.876 0 017.837 0zm8.25 19.938a4.818 4.818 0 004.812-4.813v-8.25a4.818 4.818 0 00-4.812-4.813h-8.25a4.818 4.818 0 00-4.813 4.813v8.25a4.818 4.818 0 004.813 4.813h8.25z" fill="#fff"/><path fill-rule="evenodd" clip-rule="evenodd" d="M6.462 11a5.5 5.5 0 1111 0 5.5 5.5 0 01-11 0zm2.062 0a3.442 3.442 0 003.438 3.438A3.442 3.442 0 0015.399 11a3.441 3.441 0 00-3.437-3.438A3.441 3.441 0 008.524 11z" fill="#fff"/><circle cx="17.874" cy="5.087" r=".733" fill="#fff"/></svg>