<svg width="23" height="18" fill="none" xmlns="http://www.w3.org/2000/svg"><path d="M22.962 2.116a9.404 9.404 0 01-2.6.712A4.485 4.485 0 0022.348.336a9.012 9.012 0 01-2.86 1.091 4.509 4.509 0 00-7.802 3.084c0 .358.03.702.105 1.029C8.04 5.357 4.722 3.56 2.493.822a4.54 4.54 0 00-.617 2.28c0 1.562.804 2.947 2.003 3.748a4.454 4.454 0 01-2.037-.555v.05a4.531 4.531 0 003.613 4.43 4.5 4.5 0 01-1.182.15c-.29 0-.58-.017-.854-.078.584 1.787 2.242 3.1 4.214 3.142a9.063 9.063 0 01-5.592 1.924c-.37 0-.725-.017-1.08-.062a12.697 12.697 0 006.92 2.024c8.3 0 12.837-6.875 12.837-12.834 0-.2-.007-.392-.017-.583a8.999 8.999 0 002.26-2.342z" fill="#fff"/></svg>