<svg width="19" height="14" viewBox="0 0 19 14" fill="none" xmlns="http://www.w3.org/2000/svg">
<path d="M17.375 0.374969L1.62499 0.374968C1.46553 0.375468 1.30922 0.419448 1.17289 0.502174C1.03657 0.584899 0.925388 0.703237 0.851316 0.844451C0.777244 0.985665 0.743087 1.14441 0.752523 1.30359C0.761958 1.46277 0.814628 1.61637 0.904862 1.74784L8.77986 13.1228C9.10624 13.5945 9.89199 13.5945 10.2192 13.1228L18.0942 1.74784C18.1854 1.61664 18.2388 1.46297 18.2488 1.30352C18.2587 1.14408 18.2248 0.984951 18.1507 0.843438C18.0765 0.701924 17.965 0.583435 17.8283 0.500843C17.6915 0.418252 17.5347 0.374718 17.375 0.374969Z" fill="white"/>
</svg>
