<svg width="19" height="14" viewBox="0 0 19 14" fill="none" xmlns="http://www.w3.org/2000/svg">
<path d="M1.62502 13.625L17.375 13.625C17.5345 13.6245 17.6908 13.5805 17.8271 13.4978C17.9634 13.4151 18.0746 13.2968 18.1487 13.1555C18.2228 13.0143 18.2569 12.8556 18.2475 12.6964C18.238 12.5372 18.1854 12.3836 18.0951 12.2522L10.2201 0.877155C9.89376 0.40553 9.10801 0.40553 8.78076 0.877155L0.905766 12.2522C0.814613 12.3834 0.761158 12.537 0.75121 12.6965C0.741263 12.8559 0.775202 13.015 0.849341 13.1566C0.923479 13.2981 1.03498 13.4166 1.17173 13.4992C1.30849 13.5817 1.46526 13.6253 1.62502 13.625Z" fill="#003ADB"/>
</svg>
