<svg width="156" height="52" fill="none" xmlns="http://www.w3.org/2000/svg"><path d="M56.59 12.54A5.87 5.87 0 0059 10.19a7.12 7.12 0 00.84-3.51A7.281 7.281 0 0059 3.17 5.78 5.78 0 0056.6.83 7.27 7.27 0 0053.08 0H43.9v23.15h3.24v-9.78H52l4.93 9.78h3.85L55.42 13a6.012 6.012 0 001.17-.46zm-9.45-9.45h6.07a3.07 3.07 0 011.64.44A3 3 0 0156 4.8c.27.59.403 1.232.39 1.88A4.371 4.371 0 0156 8.57a2.91 2.91 0 01-1.11 1.26 3 3 0 01-1.63.45h-6.12V3.09zM71.72 0l-8.53 23.15h3.5l1.74-5.07h9.34l1.75 5.07H83L74.49 0h-2.77zM69.5 15l3.6-10.5L76.71 15H69.5zm23.36 3.16L87.31.02h-3.54l7.55 23.13h3.08L101.94.02h-3.53l-5.55 18.14zM108.09.02h-1.57v23.13h14.86v-3.09h-11.61v-6.85h9.86v-3.09h-9.86V3.1h11.61V.02h-13.29zm32.85 0V17.3L130.01.02h-2.94v23.12h3.21V6.12l10.9 17.02h2.98V.02h-3.22zM56 29.58a10.801 10.801 0 00-4.76-1H43.9v23.17h7.32a10.69 10.69 0 004.76-1A6.79 6.79 0 0059 48a9.14 9.14 0 001-4.49V36.9a9.07 9.07 0 00-1-4.48 6.79 6.79 0 00-3-2.84zm.72 14a4.88 4.88 0 01-1.41 3.74 5.54 5.54 0 01-4 1.33h-4.17v-17h4.19a5.54 5.54 0 014 1.33 4.89 4.89 0 011.41 3.75l-.02 6.85zm11.49-14.97h-3.25v23.14h3.25V28.61zm13.52 13.78h4.7v1a6.71 6.71 0 01-.59 2.91 4.291 4.291 0 01-1.67 1.87 4.821 4.821 0 01-2.52.64 5.18 5.18 0 01-2.55-.62 4.22 4.22 0 01-1.71-1.74 5.48 5.48 0 01-.6-2.62V37a6.658 6.658 0 01.58-2.87 4.52 4.52 0 011.63-1.9 4.6 4.6 0 012.52-.69 4.45 4.45 0 011.91.44 4.65 4.65 0 011.61 1.27 5 5 0 011 2h3.51A8.8 8.8 0 0088 31.64a7.63 7.63 0 00-2.8-2.41 8 8 0 00-3.67-.86 8.28 8.28 0 00-4.26 1.08 7.35 7.35 0 00-2.84 3 9.779 9.779 0 00-1 4.53v6.83a8.708 8.708 0 001 4.28A7.12 7.12 0 0077.35 51a8.9 8.9 0 004.3 1 8.22 8.22 0 004.26-1.08 7.201 7.201 0 002.84-3 9.831 9.831 0 001-4.54v-4h-8l-.02 3.01zm16.21-13.78h-3.25v23.14h3.25V28.61zm20.14 3.09v-3.09h-16.33v3.09h6.54v20.05h3.25V31.7h6.54zm8.05-3.09l-8.53 23.14h3.5l1.74-5.08h9.34l1.74 5.08h3.5l-8.52-23.14h-2.77zm-2.23 15l3.61-10.51 3.61 10.51h-7.22zm20.27 5.05V28.61h-3.25v23.14h14.86v-3.09h-11.61zM2.38 51.53C7.66 47.67 20 37.11 21.78 21.44 23.85 3 32.77.33 34.19 0H17a20.11 20.11 0 00-2.59.19A17 17 0 000 17v19.29c.54-.17 1.07-.36 1.58-.56 6.75-2.61 11.53-10 13.24-18.14a34.19 34.19 0 01-14 21.52c-.27.21-.54.39-.83.58v11.93h1.49l.92-.06-.02-.03zm8.87-43.74a1.13 1.13 0 111.13-1.12 1.12 1.12 0 01-1.13 1.12z" fill="#fff"/><path d="M34.09 0c-.305.077-.605.17-.9.28-2.71 1-9.51 5.14-11.27 20.81-1.2 10.72-7.46 19-12.89 24.35-.91.09-1.85.14-2.8.14H4.97c5.44-5.32 11.7-13.63 12.9-24.35C19.14 10 24.91 3.93 28.08 1.43A47.696 47.696 0 0134.09 0z" fill="#EFEFEF"/><path d="M28.08 1.43C24.91 3.93 19.14 10 17.87 21.2c-1.2 10.72-7.46 19-12.9 24.35h-.93A29.798 29.798 0 01.61 45c.28-2 .46-3.9.72-6.28a34.25 34.25 0 0013.8-21.44c-1.69 8-6.79 15.3-13.1 18.24C3.83 23.89 8.49 8.27 26.48 2c.52-.22 1.05-.4 1.6-.57z" fill="#F5F5F5"/><path d="M23.18 21.57C22 32.38 15.72 40.76 10.21 46.2A28.4 28.4 0 0033.89 24c.087-.44.167-.88.24-1.32 0-.06.34-2.8.4-6.38.11-5.94 0-14.13 0-15.89C31.69 1.54 25 5.85 23.18 21.57z" fill="#fff"/><path d="M34.51.4c0 1.75.11 10 0 15.89-.06 3.58-.38 6.31-.39 6.37-.07.45-.16.89-.24 1.33a28.39 28.39 0 01-23.65 22.22 57.518 57.518 0 01-6.32 5.41A34.36 34.36 0 0034 24c.08-.44.17-.88.24-1.33 0-.16.05-.33.06-.5.132-.892.219-1.79.26-2.69.05-.67.07-1.35.07-2V.35l-.12.05z" fill="#EFEFEF"/></svg>